/* XPM */
static char *ca[] = {
/* columns rows colors chars-per-pixel */
"32 32 2 1",
"  c black",
". c #808080",
/* pixels */
"                                ",
"                                ",
"                                ",
"          ...       ....        ",
"         ....      ......       ",
"        .....     ........      ",
"       ...       ...    ...     ",
"      ...       ...     ...     ",
"     ...        ...      ...    ",
"    ...         ...      ...    ",
"   ...         ...        ...   ",
"  ...          ...        ...   ",
"  ...         ...         ...   ",
"  ...         ...         ....  ",
" ...          ...       ......  ",
" ...         ...     ..... ...  ",
" ...         ...   .....   ...  ",
" ...         ... ....      ...  ",
"  ...        ......         ... ",
"  ...       .....           ... ",
"  ...       ...             ... ",
"   ...      ...                 ",
"    ...     ...                 ",
"     ...    ...                 ",
"      ...   ...                 ",
"       ...  ..                  ",
"        ......                  ",
"         .....                  ",
"          ....                  ",
"                                ",
"                                ",
"                                "
};
