/* XPM */
static char * icoaot_xpm[] = {
"16 16 7 1",
"  c #800000",
". c red",
"X c #808000",
"o c #800080",
"O c #808080",
"+ c #C0C0C0",
"@ c None",
"@@@@@@@@@@@@@@@@",
"@@@@@@@@@o @@@@@",
"@@@@@@@@@ + @@@@",
"@@@@@@@@ @@  @@@",
"@@@@@@@ ++    @@",
"@@   @ ++      @",
"@ @@@X++ .     @",
"@@  ++  .    @@@",
"@@@ ...     @@@@",
"@@@@ .     @@@@@",
"@@@@+     @@@@@@",
"@@@+O      @@@@@",
"@@+OO@@    @@@@@",
"@+OO@@@@   @@@@@",
"+OO@@@@@@ @@@@@@",
"OO@@@@@@@@@@@@@@"};