/* XPM */
static char * icobackgroundoffset_xpm[] = {
"16 16 61 1",
" 	c None",
".	c #204A87",
"+	c #729FCF",
"@	c #030300",
"#	c #202011",
"$	c #1E1E00",
"%	c #1E1E1F",
"&	c #20303F",
"*	c #212102",
"=	c #1F1F1D",
"-	c #20200F",
";	c #030304",
">	c #FFFF8F",
",	c #FFFF8E",
"'	c #FFFF77",
")	c #CED3D2",
"!	c #FFFF8A",
"~	c #1E1E1E",
"{	c #FFFF8B",
"]	c #1E1E0F",
"^	c #FFFF22",
"/	c #FFFFDB",
"(	c #E9EDD4",
"_	c #FFFF80",
":	c #FDFDDA",
"<	c #FFFF23",
"[	c #A5B683",
"}	c #1E2F3F",
"|	c #A5B684",
"1	c #606029",
"2	c #FDFD81",
"3	c #FEFE7F",
"4	c #FFFF87",
"5	c #242405",
"6	c #BEBEC1",
"7	c #16161B",
"8	c #1D1D1F",
"9	c #6C707D",
"0	c #686C72",
"a	c #787878",
"b	c #4B4B4B",
"c	c #D6D6D6",
"d	c #16161A",
"e	c #1F1F00",
"f	c #050505",
"g	c #686868",
"h	c #8E8E8E",
"i	c #494949",
"j	c #4A4A4A",
"k	c #535353",
"l	c #CFCFCF",
"m	c #6E6E76",
"n	c #0F0F11",
"o	c #020202",
"p	c #111111",
"q	c #0F0F0F",
"r	c #0E0E0E",
"s	c #000000",
"t	c #121212",
"u	c #191919",
"v	c #0B0B0B",
"       .        ",
"      .+.       ",
"     .+++.      ",
"     ..+..      ",
"    @#.+.$%&*=-;",
"  ..#>.+.,'..)!-",
" .+....+....+.,~",
".+++++++++++++.$",
" .+....+....+.{]",
"  ..$,.+.^/..(_~",
"    ~_.+.:<[/^,$",
"    }..+..|1234]",
"    $.+++.567/_~",
"    89.+.0abcd>e",
"    fgh.gijgklmn",
"    opqrfpstsuvs"};
