/* XPM */
static char * icoconnect_xpm[] = {
"16 16 5 1",
"  c #800000",
". c #808000",
"X c yellow",
"o c gray100",
"O c None",
"OOOOOOOOOOOOOOOO",
"O OOOOOOOOOOOOOO",
"O  OOOOOOOOOOOOO",
"O X.OOOOO.OOOOOO",
"OO X.OOO.o.OOOOO",
"OO XX.O.oX.OOOOO",
"OOO XX.oXXX.OOOO",
"OOO XXXXXXX.OOOO",
"OOOO XXXX.XX.OOO",
"OOOO XXXX .X.OOO",
"OOOOO XX O.XX.OO",
"OOOOO X OOO.X.OO",
"OOOOOO OOOOO.X.O",
"OOOOOOOOOOOOO..O",
"OOOOOOOOOOOOOO.O",
"OOOOOOOOOOOOOOOO"};