/* XPM */
static char * icodisconnect_xpm[] = {
"16 16 6 1",
"  c black",
". c #800000",
"X c #808000",
"o c yellow",
"O c gray100",
"+ c None",
"+++++X++++++++++",
"++++XOX+++++++++",
"++++XooX++++++++",
"+++XOoooX+++++++",
"+++XooooX +++++X",
"++XOoooX +++++XX",
"++Xoo.X +++++XoX",
"+XOo +.+++++XoX+",
"+Xo +++++X+XOoX+",
"Xo +++++XOXOoX++",
"X +++++XOoooXX++",
" +++++XOooooX+++",
"+++++++XoooXX+++",
"++++++++XooX++++",
"+++++++++XXX++++",
"++++++++++X+++++"};