/* XPM */
static char * icomp3_xpm[] = {
"16 16 145 2",
"  	c None",
". 	c #A3B1D3",
"+ 	c #B3C2E4",
"@ 	c #B6C4E7",
"# 	c #B6C4E8",
"$ 	c #B4C2E4",
"% 	c #A3B1D2",
"& 	c #A1AFD3",
"* 	c #99A6CC",
"= 	c #97A4CA",
"- 	c #96A3C9",
"; 	c #A2B0D4",
"> 	c #8693B9",
", 	c #7F8CB2",
"' 	c #7886AE",
") 	c #7A87AF",
"! 	c #7B88B0",
"~ 	c #7D8AB1",
"{ 	c #7E8BB2",
"] 	c #8896BA",
"^ 	c #6B7A9E",
"/ 	c #657298",
"( 	c #667399",
"_ 	c #6B779D",
": 	c #B2B9CD",
"< 	c #CBD0DE",
"[ 	c #D3D7E3",
"} 	c #DFE2EB",
"| 	c #E1E4EC",
"1 	c #7C87A8",
"2 	c #637097",
"3 	c #6D7CA0",
"4 	c #415076",
"5 	c #4B577D",
"6 	c #4C597F",
"7 	c #4D5A80",
"8 	c #5E6A8E",
"9 	c #DBDEE5",
"0 	c #D4D8E0",
"a 	c #C7CBD6",
"b 	c #B8BECC",
"c 	c #D3D7E1",
"d 	c #78829F",
"e 	c #48557D",
"f 	c #425074",
"g 	c #2D3D62",
"h 	c #323F64",
"i 	c #364369",
"j 	c #37446B",
"k 	c #525E7F",
"l 	c #C9CDDA",
"m 	c #35436B",
"n 	c #3A486F",
"o 	c #313F68",
"p 	c #D2D6E1",
"q 	c #687390",
"r 	c #323F67",
"s 	c #344167",
"t 	c #303E61",
"u 	c #1A294E",
"v 	c #263359",
"w 	c #2E3B61",
"x 	c #303D64",
"y 	c #4B5779",
"z 	c #C7CCD8",
"A 	c #324067",
"B 	c #39466D",
"C 	c #303D65",
"D 	c #D2D6E0",
"E 	c #626C89",
"F 	c #2A375F",
"G 	c #2C395F",
"H 	c #253457",
"I 	c #06153A",
"J 	c #121F44",
"K 	c #1A274D",
"L 	c #17254D",
"M 	c #384568",
"N 	c #C6CAD7",
"O 	c #2C3960",
"P 	c #2D3A61",
"Q 	c #323F65",
"R 	c #586380",
"S 	c #1D2A52",
"T 	c #1B284E",
"U 	c #0F1D41",
"V 	c #0F1E45",
"W 	c #121F45",
"X 	c #263357",
"Y 	c #8991A4",
"Z 	c #B4B9C5",
"` 	c #C7CCD7",
" .	c #17254E",
"..	c #6A748E",
"+.	c #D7DBE1",
"@.	c #E1E4EA",
"#.	c #4E5977",
"$.	c #132148",
"%.	c #152248",
"&.	c #162651",
"*.	c #121F46",
"=.	c #6B748D",
"-.	c #FFFFFF",
";.	c #FEFFFF",
">.	c #707A93",
",.	c #1D2B55",
"'.	c #949CAF",
").	c #F4F7F7",
"!.	c #C7CDD5",
"~.	c #394568",
"{.	c #202D54",
"].	c #1E2B50",
"^.	c #17254C",
"/.	c #223057",
"(.	c #344064",
"_.	c #788299",
":.	c #6D7792",
"<.	c #3B486E",
"[.	c #3F4D73",
"}.	c #435076",
"|.	c #586485",
"1.	c #3B486D",
"2.	c #2B385D",
"3.	c #263258",
"4.	c #2E3B62",
"5.	c #2B3960",
"6.	c #3C4971",
"7.	c #515E84",
"8.	c #5A678C",
"9.	c #59668C",
"0.	c #4D5B82",
"a.	c #455278",
"b.	c #38456B",
"c.	c #313E63",
"d.	c #48547B",
"e.	c #59658B",
"f.	c #67749A",
"g.	c #717DA3",
"h.	c #717EA4",
"i.	c #69769C",
"j.	c #5D698E",
"k.	c #4C577D",
"l.	c #7A85AB",
"m.	c #8089AF",
"n.	c #7C86AC",
"                                ",
"          . + @ # $ %           ",
"        & * = - - - * ;         ",
"      > , , ' ' ) ! ~ { ]       ",
"    ^ / ( _ : < [ } | 1 2 3     ",
"  4 5 6 7 8 9 0 a b c d e 7 f   ",
"  g h i j k l m n o p q r s t   ",
"  u v w x y z A B C D E F G H   ",
"  I J K L M N O P Q D R S T U   ",
"  V W X Y Z `  ...+.@.#.$.%.U   ",
"  &.*.=.-.;.>.,.'.).!.~.{.].^.  ",
"    /.(._.:.<.[.}.|.1.G 2.3.    ",
"      4.5.6.7.8.9.0.a.b.c.      ",
"        d.e.f.g.h.i.j.k.        ",
"            l.m.m.n.            ",
"                                "};
