/* XPM */
static char * icoopensb_xpm[] = {
"16 16 6 1",
"  c black",
". c navy",
"X c cyan",
"o c #808080",
"O c #C0C0C0",
"+ c None",
"++++++++++++++++",
"++++++++++++++++",
".........+++++++",
".........+++++++",
" OOOOOOO + +++++",
" OoooooO +  ++++",
" OOOOOOO + X +++",
" Ooo       XX ++",
" OOO XXXXXXXXX +",
"     XXXXXXXXXX ",
"++++ XXXXXXXXX +",
"++++       XX ++",
"++++++++++ X +++",
"++++++++++  ++++",
"++++++++++ +++++",
"++++++++++++++++"};