/* XPM */
static char * icoopencp_xpm[] = {
"16 16 14 1",
"  c black",
". c #800000",
"X c red",
"o c #008000",
"O c green",
"+ c #808000",
"@ c yellow",
"# c navy",
"$ c blue",
"% c #008080",
"& c cyan",
"* c #808080",
"= c #C0C0C0",
"- c None",
"---  =  =  =  --",
"-- @@ XX oO #& -",
"-- @@  X oO $& -",
"- @@   XX oO $& ",
"-  + & .  o  #  ",
"- @ &&       %& ",
"-  &&&&&&&&& &# ",
"- &&&&&&&&&& #  ",
"-  &&&&&&&&& &# ",
"- @ &&       %& ",
"-  + & .  o  #  ",
"- @@   XX *O %& ",
"-      .  o  #  ",
"- @@ XXXX oO $% ",
"- @@ XXXX *o %$ ",
"--             -"};