/* XPM */
static char * icoplay_xpm[] = {
"16 16 45 1",
" 	c None",
".	c #C287D7",
"+	c #B368CD",
"@	c #B770CF",
"#	c #AE5EC9",
"$	c #B76FCF",
"%	c #B973D0",
"&	c #A143C0",
"*	c #AF5FCA",
"=	c #B56CCE",
"-	c #AB58C7",
";	c #AA55C6",
">	c #AC59C7",
",	c #AE5CC8",
"'	c #AD5BC8",
")	c #7E3297",
"!	c #A44BC2",
"~	c #A449C2",
"{	c #A750C4",
"]	c #993DB8",
"^	c #9E3FBE",
"/	c #973CB5",
"(	c #983DB7",
"_	c #9D3FBD",
":	c #8937A5",
"<	c #752F8D",
"[	c #7A3093",
"}	c #7D3196",
"|	c #7F3299",
"1	c #80339A",
"2	c #A54CC3",
"3	c #B062CB",
"4	c #8C37A7",
"5	c #762F8E",
"6	c #923AAF",
"7	c #AB57C7",
"8	c #83349D",
"9	c #8836A3",
"0	c #A041BF",
"a	c #B061CA",
"b	c #953CB3",
"c	c #8535A0",
"d	c #8F39AC",
"e	c #A954C6",
"f	c #9A3EB9",
"                ",
"    .           ",
"    +@          ",
"    #$%&        ",
"    *=+@-       ",
"    ;>--,')     ",
"    !!!!!~{]    ",
"    ^//(((/_#   ",
"    :<[}|1:23   ",
"    45})1672    ",
"    61890a      ",
"    bcde*       ",
"    ff*7        ",
"    @=          ",
"    ]           ",
"                "};
