/* XPM */
static char * icoremtab_xpm[] = {
"16 16 7 1",
"  c black",
". c #800000",
"X c navy",
"o c #800080",
"O c #C0C0C0",
"+ c gray100",
"@ c None",
"@@XXXXXXXXXXXX@@",
"@@X@XX@XX@XX@X@@",
"@@XXXXXXXXXXXX@@",
"@@X++++++++++X@@",
"@@X+  +  +  +X@@",
"@@X+++++.o+++X@@",
"@ XXXXXXo.XXXX@o",
"@ OOOOOOOO..@@..",
"@ O  O  O O.o..@",
"@ OOOOOOOOOo..@@",
"@           ..o@",
"@@@@@@@@@@..@@..",
"@@@@@@@@@...@@@.",
"@@@@@@@@@..@@@@@",
"@@@@@@@@@@.@@@@@",
"@@@@@@@@@@@@@@@@"};