/* XPM */
static char * spanner_xpm[] = {
"16 16 3 1",
" 	c None",
".	c black",
",  c gray",
"            ... ",
"           .,,,.",
"          .,,,,.",
"         .,, ,,.",
"        .,, ,,. ",
"       .,, ,,.  ",
"      .,, ,,.   ",
"     .,, ,,.    ",
"  ...,, ,,.     ",
" .,,,,,,,.      ",
".,,...,,,.      ",
".,.   .,.       ",
"..    .,.       ",
"     .,,.       ",
"    .,,.        ",
"   ....         "};
